<svg xmlns="http://www.w3.org/2000/svg" width="1100" height="920" viewBox="0 0 1100 920" font-family="Helvetica, Arial, sans-serif">
<rect width="1100" height="920" fill="#ffffff"/>
<defs><marker id="ah" markerWidth="10" markerHeight="10" refX="8" refY="3" orient="auto"><path d="M0,0 L8,3 L0,6 Z" fill="#1e1e1e"/></marker>
<marker id="ah0" markerWidth="10" markerHeight="10" refX="2" refY="3" orient="auto"><path d="M8,0 L0,3 L8,6 Z" fill="#1e1e1e"/></marker></defs>
<rect x="160" y="70" width="180" height="64" rx="8" fill="none" stroke="#1e1e1e" stroke-width="2"/>
<text x="250" y="108" font-size="18" text-anchor="middle" fill="#1e1e1e" font-weight="600">Client</text>
<rect x="470" y="70" width="180" height="64" rx="8" fill="none" stroke="#1e1e1e" stroke-width="2"/>
<text x="560" y="108" font-size="18" text-anchor="middle" fill="#1e1e1e" font-weight="600">Client</text>
<rect x="775" y="70" width="210" height="64" rx="8" fill="none" stroke="#1e1e1e" stroke-width="2"/>
<text x="880" y="108" font-size="18" text-anchor="middle" fill="#1e1e1e" font-weight="600">Client (no SDK)</text>
<text x="1040" y="112" font-size="30" text-anchor="middle" fill="#1e1e1e" font-weight="600">…</text>
<rect x="60" y="240" width="690" height="96" rx="8" fill="#e9ecef" stroke="#1e1e1e" stroke-width="2"/>
<rect x="100" y="256" width="300" height="64" rx="8" fill="#fff" stroke="#1e1e1e" stroke-width="2"/>
<text x="250" y="294" font-size="18" text-anchor="middle" fill="#1e1e1e" font-weight="600">Go SDK</text>
<rect x="410" y="256" width="300" height="64" rx="8" fill="#fff" stroke="#1e1e1e" stroke-width="2"/>
<text x="560" y="294" font-size="18" text-anchor="middle" fill="#1e1e1e" font-weight="600">TS SDK</text>
<rect x="60" y="470" width="980" height="96" rx="8" fill="#f1f3f5" stroke="#1e1e1e" stroke-width="2"/>
<text x="550" y="524.6666666666666" font-size="20" text-anchor="middle" fill="#1e1e1e" font-weight="600">Sextant</text>
<rect x="60" y="700" width="980" height="96" rx="8" fill="#f1f3f5" stroke="#1e1e1e" stroke-width="2"/>
<text x="550" y="754" font-size="18" text-anchor="middle" fill="#1e1e1e" font-weight="600">batteries: NATS / Redis</text>
<line x1="250" y1="134" x2="250" y2="240" stroke="#1e1e1e" stroke-width="2" marker-end="url(#ah)"/>
<line x1="560" y1="134" x2="560" y2="240" stroke="#1e1e1e" stroke-width="2" marker-end="url(#ah)"/>
<line x1="250" y1="336" x2="250" y2="470" stroke="#1e1e1e" stroke-width="2" marker-end="url(#ah)" marker-start="url(#ah0)"/>
<line x1="880" y1="134" x2="880" y2="470" stroke="#1e1e1e" stroke-width="2" marker-end="url(#ah)" marker-start="url(#ah0)"/>
<line x1="550" y1="622" x2="550" y2="700" stroke="#1e1e1e" stroke-width="2" marker-end="url(#ah)" marker-start="url(#ah0)"/>
<text x="550" y="36" font-size="26" text-anchor="middle" fill="#1e1e1e" font-weight="700">Sextant — system architecture</text>
<text x="550" y="392" font-size="18" text-anchor="middle" fill="#1e1e1e" font-weight="700">Wire API</text>
<text x="550" y="416" font-size="13.5" text-anchor="middle" fill="#1e1e1e" font-weight="600">the wire protocol — what every client speaks to the bus.</text>
<text x="550" y="596" font-size="13.5" text-anchor="middle" fill="#1e1e1e" font-weight="600">the bus — implements the operations · stamps the frame (bus space) · enforces identity + namespace · the sole access point.</text>
<text x="550" y="826" font-size="13.5" text-anchor="middle" fill="#1e1e1e" font-weight="600">the pluggable stream backend, behind one interface.</text>
</svg>
